<?xml version="1.0" ?>
<!DOCTYPE svg
  PUBLIC '-//W3C//DTD SVG 1.1//EN'
  'http://www.w3.org/Graphics/SVG/1.1/DTD/svg11.dtd'>
<svg class="icon" height="48.00px" version="1.1" viewBox="0 0 1024 1024" width="48px" xmlns="http://www.w3.org/2000/svg">
	<path d="M851.706667 653.166667a21.333333 21.333333 0 0 1-4.62 23.253333l-298.666667 298.666667a21.333333 21.333333 0 0 1-30.173333 0l-298.666667-298.666667A21.333333 21.333333 0 0 1 234.666667 640h597.333333a21.333333 21.333333 0 0 1 19.706667 13.166667zM234.666667 384h597.333333a21.333333 21.333333 0 0 0 15.086667-36.42l-298.666667-298.666667a21.333333 21.333333 0 0 0-30.173333 0l-298.666667 298.666667A21.333333 21.333333 0 0 0 234.666667 384z" fill="#8a8a8a"/>
</svg>
