<?xml version="1.0" standalone="no"?><!DOCTYPE svg PUBLIC "-//W3C//DTD SVG 1.1//EN" "http://www.w3.org/Graphics/SVG/1.1/DTD/svg11.dtd"><svg t="1666798875680" class="icon" viewBox="0 0 1024 1024" version="1.1" xmlns="http://www.w3.org/2000/svg" p-id="4199" xmlns:xlink="http://www.w3.org/1999/xlink" width="48" height="48"><path d="M707.2 79.9H238.6c-11.6 0-21 9.4-21 21V923c0 11.6 9.4 21 21 21h704.9V316.3L707.2 79.9" fill="#FFFFFF" p-id="4200"></path><path d="M943.6 960h-705c-20.4 0-37-16.6-37-37V100.9c0-20.4 16.6-37 37-37h468.6c4.2 0 8.3 1.7 11.3 4.7L954.9 305c3 3 4.7 7.1 4.7 11.3V944c0 8.9-7.2 16-16 16z m-705-864.1c-2.7 0-5 2.2-5 5V923c0 2.7 2.2 5 5 5h689V323l-227-227h-462z" fill="#00365B" p-id="4201"></path><path d="M943.6 316.3H707.2V79.9z" fill="#FFFFFF" p-id="4202"></path><path d="M943.6 332.3H707.2c-8.8 0-16-7.2-16-16V79.9c0-6.5 3.9-12.3 9.9-14.8s12.9-1.1 17.4 3.5L954.9 305c4.6 4.6 5.9 11.5 3.5 17.4-2.5 6-8.3 9.9-14.8 9.9z m-220.4-32H905L723.2 118.6v181.7z" fill="#00365B" p-id="4203"></path><path d="M104.7 414.2h698.8c22.4 0 40.6 19.8 40.6 44.3v301.4c0 24.5-18.2 44.3-40.6 44.3H104.7c-22.4 0-40.6-19.8-40.6-44.3V458.5c-0.1-24.5 18.1-44.3 40.6-44.3z" fill="#C24978" p-id="4204"></path><path d="M241.1 701.6c2.9 3.3 7.7 4.9 14.4 4.7 6.6-0.2 11.4-1.8 14.1-4.7s4.1-6.3 4.1-10.1V516.8c0-3.8-1.5-7.2-4.4-10.3-2.9-3-7.7-4.6-14.4-4.6-7 0-11.8 1.6-14.4 4.8-2.6 3.2-3.8 6.6-3.8 10v68.7H150v-68.7c0-3.8-1.4-7.2-4.1-10.3-2.8-3-7.5-4.6-14.1-4.6s-11.4 1.6-14.4 4.8c-2.9 3.2-4.4 6.6-4.4 10v174.7c0 3.4 1.5 6.8 4.4 10.1 2.9 3.3 7.7 4.9 14.4 4.7 6.6-0.2 11.4-1.8 14.1-4.7s4.1-6.3 4.1-10.1v-74.1h86.6v74.1c0.1 3.6 1.5 7 4.5 10.3z m128.1 4.7c6.6 0 11.4-1.5 14.2-4.6 2.8-3 4.3-6.5 4.3-10.3V537.9h36.5c3.4 0 6.7-1.2 10-3.7 3.2-2.5 4.8-6.7 4.8-12.8 0-5.9-1.5-10.1-4.6-12.7-3-2.6-6.5-3.8-10.3-3.8h-110c-3.8 0-7.2 1.3-10.3 3.8-3 2.6-4.6 6.8-4.6 12.7 0 6.1 1.6 10.4 4.8 12.8 3.2 2.5 6.6 3.7 10 3.7h36.5v153.6c0 3.4 1.4 6.7 4.3 10 3 3.2 7.7 4.8 14.4 4.8z m267.7-4.1c2.2 2.9 6.3 4.3 12.4 4.1 4.4 0 7.8-0.6 10.3-1.9 2.5-1.2 4.3-2.8 5.4-4.8 1.1-2 1.8-4.3 1.9-7 0.1-2.7 0-5.4-0.4-8.3L642 523.6c-1.1-7-3.9-12.4-8.4-16.1-4.5-3.7-9.5-5.6-15-5.6-5.7 0-10.7 1.5-15 4.4-4.3 2.9-7.6 8.9-10.1 17.8l-31.6 119.7-32.5-119.1c-2.7-9.1-6.1-15.2-10.3-18.2-4.2-3-9.3-4.6-15.4-4.6s-11.2 1.8-15.2 5.4c-4.1 3.6-6.6 8.7-7.6 15.4l-24.5 161.6c-1.3 8-0.9 13.6 1.4 17 2.3 3.3 6.4 5 12.3 5 7.2 0 12.2-1.7 15-5 2.8-3.3 4.6-8.4 5.6-15.2L504 585.2c0.8-4.6 1.9-6.8 3.3-6.8s2.8 2.3 4.1 6.8c5.3 18.4 10.7 36.6 16.1 54.6 5.4 18 10.9 36.1 16.4 54.6 0.6 2.1 1.2 3.8 1.9 5.3 0.7 1.4 1.7 2.7 3 3.7s3 1.8 5.1 2.3 4.7 0.7 8 0.7c6.1 0 10.2-1.1 12.4-3.3s3.8-5.1 4.7-8.7L610.9 585c1.3-4.4 2.8-6.6 4.3-6.6s2.7 2.2 3.4 6.6l13.7 102.9c0.8 6.5 2.4 11.3 4.6 14.3z m145.8 1.3c3.4 0 6.7-1.2 10-3.7 3.2-2.5 4.8-6.7 4.8-12.8 0-5.9-1.5-10.1-4.6-12.7-3-2.6-6.5-3.8-10.3-3.8h-55.9v-154c0-4.6-1.7-8.1-5.1-10.7-3.4-2.6-7.9-3.8-13.4-3.8-5.1 0-9.5 1.3-13.1 3.8-3.6 2.6-5.4 6.1-5.4 10.7V683c0 5.7 1.8 10.5 5.4 14.5 3.6 4 8.5 6 14.8 6h72.8z" fill="#FFFFFF" p-id="4205"></path></svg>