<?xml version="1.0" standalone="no"?><!DOCTYPE svg PUBLIC "-//W3C//DTD SVG 1.1//EN" "http://www.w3.org/Graphics/SVG/1.1/DTD/svg11.dtd"><svg t="1646462485631" class="icon" viewBox="0 0 1024 1024" version="1.1" xmlns="http://www.w3.org/2000/svg" p-id="3873" xmlns:xlink="http://www.w3.org/1999/xlink" width="48" height="48"><defs><style type="text/css"></style></defs><path d="M768 416H400v-96a112 112 0 0 1 224 0 48 48 0 0 0 96 0 208 208 0 0 0-416 0v96H256a96.288 96.288 0 0 0-96 96v288a96.288 96.288 0 0 0 96 96h512a96.288 96.288 0 0 0 96-96v-288a96.288 96.288 0 0 0-96-96z m-224 288a32 32 0 0 1-64 0v-96a32 32 0 0 1 64 0z" p-id="3874" fill="#AFB1B3"></path></svg>