<?xml version="1.0" standalone="no"?><!DOCTYPE svg PUBLIC "-//W3C//DTD SVG 1.1//EN" "http://www.w3.org/Graphics/SVG/1.1/DTD/svg11.dtd"><svg t="1646462457742" class="icon" viewBox="0 0 1024 1024" version="1.1" xmlns="http://www.w3.org/2000/svg" p-id="3461" xmlns:xlink="http://www.w3.org/1999/xlink" width="48" height="48"><defs><style type="text/css"></style></defs><path d="M831.552 531.584a239.488 239.488 0 0 0 0.64-40l66.912-91.2a32 32 0 0 0 4.224-30.048 441.056 441.056 0 0 0-31.072-66.176 399.2 399.2 0 0 0-42.112-60.576 32.256 32.256 0 0 0-27.872-11.072l-114.272 12.448a316.48 316.48 0 0 0-32.864-19.2l-46.336-104.96a32 32 0 0 0-23.712-18.56 432.8 432.8 0 0 0-146.176 0 32 32 0 0 0-23.712 18.56L368.736 225.92a316.48 316.48 0 0 0-32.864 19.2l-114.144-12.608a32.224 32.224 0 0 0-27.872 11.072A400.48 400.48 0 0 0 151.744 304a442.88 442.88 0 0 0-31.072 66.208 32 32 0 0 0 4.224 30.048l67.648 92.192a276.544 276.544 0 0 0 0 38.912L124.8 623.616a32 32 0 0 0-4.224 30.048 441.056 441.056 0 0 0 31.168 66.336 399.2 399.2 0 0 0 42.112 60.576 32 32 0 0 0 27.872 11.072l114.208-12.48a319.2 319.2 0 0 0 32.8 19.04l46.464 105.152a32 32 0 0 0 23.712 18.56 431.168 431.168 0 0 0 146.176 0 32 32 0 0 0 23.712-18.56l46.464-105.152a319.2 319.2 0 0 0 32.8-19.04l114.208 12.48a32 32 0 0 0 27.872-11.072 400.48 400.48 0 0 0 42.112-60.576 442.88 442.88 0 0 0 31.072-66.208 32 32 0 0 0-4.224-30.048zM512 640a128 128 0 1 1 128-128 128.16 128.16 0 0 1-128 128z" p-id="3462" fill="#AFB1B3"></path></svg>