<?xml version="1.0" standalone="no"?><!DOCTYPE svg PUBLIC "-//W3C//DTD SVG 1.1//EN" "http://www.w3.org/Graphics/SVG/1.1/DTD/svg11.dtd"><svg t="1646467441352" class="icon" viewBox="0 0 1024 1024" version="1.1" xmlns="http://www.w3.org/2000/svg" p-id="3149" xmlns:xlink="http://www.w3.org/1999/xlink" width="48" height="48"><defs><style type="text/css"></style></defs><path d="M832.2 127.9v766H192.7v-766h639.5m0-64H192.7c-35.3 0-64 28.7-64 64v766c0 35.3 28.7 64 64 64h639.5c35.3 0 64-28.7 64-64v-766c0-35.4-28.7-64-64-64z" fill="#A3BDD3" p-id="3150"></path><path d="M261.437 510.503v-32h503.9v32zM261.44 605.397v-32h503.9v32zM400.527 305.69v-32h364.8v32zM261.391 410.546v-32h503.9v32z" fill="#A3BDD3" p-id="3151"></path><path d="M733.039 824.168v-32h97.9v32z" fill="#8C98A6" p-id="3152"></path><path d="M896.2 958.3H456.7v-176c0-35.3 28.7-64 64-64h375.5c35.3 0 64 28.7 64 64v112c0 35.4-28.7 64-64 64z" fill="#8AA9BF" p-id="3153"></path><path d="M640.6 771v20h-46.8v122.8h-23.4V791h-46.8v-20h117zM676.4 771l33.6 50.4 33.6-50.4h28.6L724 840l51.4 73.8h-28.6L710 858.6l-36.8 55.2h-28.6l51-73.8-47.8-69h28.6zM896.4 771v20h-46.8v122.8h-23.4V791h-46.8v-20h117z" fill="#FFFFFF" p-id="3154"></path></svg>