<?xml version="1.0" standalone="no"?><!DOCTYPE svg PUBLIC "-//W3C//DTD SVG 1.1//EN" "http://www.w3.org/Graphics/SVG/1.1/DTD/svg11.dtd"><svg t="1667997229503" class="icon" viewBox="0 0 1024 1024" version="1.1" xmlns="http://www.w3.org/2000/svg" p-id="4471" xmlns:xlink="http://www.w3.org/1999/xlink" width="48" height="48"><path d="M749.4 178c-97.1-33.2-160.7 0.6-193 27.7-0.1 0.1-0.1 0.2-0.2 0.3l-58.9 58.9L342.2 420c-9.1 9.1-23.9 9.1-33.1 0-9.1-9.1-9.1-23.9 0-33.1l171.3-171.3c-27.5-27.5-94.3-75.1-203.8-37.7-83.5 35.8-257.4 202.8-46.8 409.4 210.6 206.6 276.9 265.1 276.9 265.1l6.4 7.1 6.4-7.1s66.3-58.5 276.9-265.1c210.4-206.6 36.4-373.5-47-409.3z m0 0" fill="#3259CE" p-id="4472"></path></svg>