<?xml version="1.0" standalone="no"?><!DOCTYPE svg PUBLIC "-//W3C//DTD SVG 1.1//EN" "http://www.w3.org/Graphics/SVG/1.1/DTD/svg11.dtd"><svg t="1668822662182" class="icon" viewBox="0 0 1024 1024" version="1.1" xmlns="http://www.w3.org/2000/svg" p-id="11384" xmlns:xlink="http://www.w3.org/1999/xlink" width="64" height="64"><path d="M607.3 640.2H127.9v-439c0-5 4-9 9-9h748c5 0 9 4 9 9v277.7c0 17.7 14.3 32 32 32s32-14.3 32-32V201.2c0-40.3-32.7-73-73-73h-748c-40.2 0-73 32.7-73 73v557.5c0 40.2 32.7 73 73 73h470.4c17.7 0 32-14.3 32-32v-0.1c0-17.7-14.3-32-32-32H136.9c-5 0-9-4-9-9v-54.4h479.4c17.7 0 32-14.3 32-32s-14.4-32-32-32z" p-id="11385" fill="#707070"></path><path d="M959 608.5c0-17.8-14.6-32.4-32.4-32.4H735.5c-8.3-0.1-16.6 3-22.9 9.3-6.3 6.3-9.4 14.6-9.3 22.9v191.1c0 17.8 14.6 32.4 32.4 32.4 17.8 0 32.4-14.6 32.4-32.4V686.1l136.1 136.1c12.4 12.4 32.8 12.4 45.3 0s12.4-32.8 0-45.3l-136.1-136h113.2c17.8 0 32.4-14.6 32.4-32.4z" p-id="11386" fill="#707070"></path></svg>