<?xml version="1.0" standalone="no"?><!DOCTYPE svg PUBLIC "-//W3C//DTD SVG 1.1//EN" "http://www.w3.org/Graphics/SVG/1.1/DTD/svg11.dtd"><svg t="1646535063190" class="icon" viewBox="0 0 1024 1024" version="1.1" xmlns="http://www.w3.org/2000/svg" p-id="6006" xmlns:xlink="http://www.w3.org/1999/xlink" width="48" height="48"><defs><style type="text/css"></style></defs><path d="M554.666667 384 789.333333 384 554.666667 149.333333 554.666667 384M256 85.333333 597.333333 85.333333 853.333333 341.333333 853.333333 853.333333C853.333333 900.266667 814.933333 938.666667 768 938.666667L256 938.666667C208.64 938.666667 170.666667 900.266667 170.666667 853.333333L170.666667 170.666667C170.666667 123.306667 208.64 85.333333 256 85.333333M261.12 661.333333 420.693333 820.906667 481.28 760.746667 381.866667 661.333333 481.28 561.92 420.693333 501.76 261.12 661.333333M737.28 661.333333 577.706667 501.76 517.12 561.92 616.533333 661.333333 517.12 760.746667 577.706667 820.906667 737.28 661.333333Z" p-id="6007" fill="#848F95"></path></svg>