<?xml version="1.0" standalone="no"?><!DOCTYPE svg PUBLIC "-//W3C//DTD SVG 1.1//EN" "http://www.w3.org/Graphics/SVG/1.1/DTD/svg11.dtd"><svg t="1646462477261" class="icon" viewBox="0 0 1024 1024" version="1.1" xmlns="http://www.w3.org/2000/svg" p-id="3667" xmlns:xlink="http://www.w3.org/1999/xlink" width="48" height="48"><defs><style type="text/css"></style></defs><path d="M860.8 717.216l-154.304-154.336a320.896 320.896 0 0 0-59.872-372.736 323.648 323.648 0 0 0-311.68-83.456 73.6 73.6 0 0 0-32.768 123.264l61.088 61.056a54.048 54.048 0 0 1 8.832 68.64 51.008 51.008 0 0 1-37.696 21.536 51.968 51.968 0 0 1-40.256-14.816l-64-64a73.888 73.888 0 0 0-123.488 33.344A321.984 321.984 0 0 0 563.2 706.784l154.016 154.016a101.504 101.504 0 0 0 143.584-143.584z" p-id="3668" fill="#AFB1B3"></path></svg>