<?xml version="1.0" standalone="no"?><!DOCTYPE svg PUBLIC "-//W3C//DTD SVG 1.1//EN" "http://www.w3.org/Graphics/SVG/1.1/DTD/svg11.dtd"><svg class="icon" width="48px" height="48.00px" viewBox="0 0 1024 1024" version="1.1" xmlns="http://www.w3.org/2000/svg"><path fill="#515151" d="M512 42.666667c259.2 0 469.333333 210.133333 469.333333 469.333333s-210.133333 469.333333-469.333333 469.333333S42.666667 771.2 42.666667 512 252.8 42.666667 512 42.666667z m42.666667 87.68V256a42.666667 42.666667 0 0 1-85.333334 0V130.346667A384.170667 384.170667 0 0 0 130.346667 469.333333H256a42.666667 42.666667 0 0 1 0 85.333334H130.346667A384.170667 384.170667 0 0 0 469.333333 893.696V768a42.666667 42.666667 0 0 1 85.333334 0v125.653333a384.170667 384.170667 0 0 0 338.986666-338.944L768 554.666667a42.666667 42.666667 0 0 1 0-85.333334h125.653333a384.170667 384.170667 0 0 0-338.944-338.986666z"  /></svg>